<svg width="32" height="32" viewBox="0 0 32 32" fill="none" xmlns="http://www.w3.org/2000/svg">
<path d="M19.0312 9.18237C16.9897 9.18237 15.3335 11.401 15.3335 14.1355C15.3335 16.8701 16.9897 19.0887 19.0312 19.0887C21.0727 19.0887 22.7288 16.8701 22.7288 14.1355C22.7288 11.401 21.0727 9.18237 19.0312 9.18237Z" fill="#DEC7A6"/>
<path d="M27.658 14.9611C29.2751 14.9611 30.9312 14.5483 31.9728 11.659C31.9728 11.659 32.8972 20.7398 23.9603 20.7398C20.3408 20.7398 17.703 19.7207 16.138 17.2184C17.1796 15.1836 19.1768 13.223 21.5386 10.4949C22.3328 11.5687 25.2701 14.9611 27.658 14.9611Z" fill="#DEC7A6"/>
<path d="M12.9691 9.18237C10.9276 9.18237 9.27148 11.401 9.27148 14.1355C9.27148 16.8701 10.9276 19.0887 12.9691 19.0887C15.0107 19.0887 16.6668 16.8701 16.6668 14.1355C16.6668 11.401 15.0107 9.18237 12.9691 9.18237Z" fill="#DEC7A6"/>
<path d="M10.4614 10.4949C12.8232 13.2197 14.8205 15.1836 15.8621 17.2184C14.2971 19.7207 11.6592 20.7398 8.03968 20.7398C-0.897191 20.7398 0.0272231 11.659 0.0272231 11.659C1.06882 14.5483 2.72495 14.9611 4.34203 14.9611C6.72988 14.9611 9.66718 11.5687 10.4614 10.4949Z" fill="#DEC7A6"/>
</svg>
