<svg width="65" height="65" viewBox="0 0 65 65" fill="none" xmlns="http://www.w3.org/2000/svg">
<path d="M16.3921 12.9536C19.3724 16.0459 22.9457 18.5054 26.8984 20.185C30.851 21.8646 35.1018 22.7298 39.3965 22.7288C43.7455 22.7301 48.0488 21.8429 52.0427 20.1219" stroke="#C09B6B" stroke-width="4" stroke-linecap="round" stroke-linejoin="round"/>
<path d="M52.2262 22.7288V41.9786C52.2262 47.084 50.1981 51.9802 46.588 55.5903C42.978 59.2003 38.0817 61.2284 32.9764 61.2284C27.871 61.2284 22.9747 59.2003 19.3647 55.5903C15.7547 51.9802 13.7266 47.084 13.7266 41.9786V22.7288C13.7266 17.6234 15.7547 12.7272 19.3647 9.11714C22.9747 5.5071 27.871 3.479 32.9764 3.479C38.0817 3.479 42.978 5.5071 46.588 9.11714C50.1981 12.7272 52.2262 17.6234 52.2262 22.7288V22.7288Z" stroke="#C09B6B" stroke-width="4" stroke-linecap="round" stroke-linejoin="round"/>
<path d="M52.2298 25.4785C52.2298 31.0591 47.7749 42.6493 43.9799 44.7283C40.5443 46.6056 38.0326 39.2284 32.98 39.2284C27.9274 39.2284 25.4158 46.6056 21.9765 44.7283C18.1815 42.6493 13.7266 31.0591 13.7266 25.4785" stroke="#C09B6B" stroke-width="4" stroke-linecap="round" stroke-linejoin="round"/>
</svg>
