<svg width="65" height="65" viewBox="0 0 65 65" fill="none" xmlns="http://www.w3.org/2000/svg">
<g clip-path="url(#clip0_4_11783)">
<path d="M49.9943 29.7538L38.1303 22.9751L37.4956 24.0898C37.1487 24.6948 36.5759 25.1374 35.9029 25.3204C35.2299 25.5034 34.5118 25.4118 33.9063 25.0658L15.6769 14.6658C15.0715 14.3193 14.6283 13.7467 14.4448 13.0736C14.2612 12.4006 14.3524 11.6823 14.6983 11.0764L19.2236 3.14575C19.3087 2.99547 19.4225 2.86346 19.5587 2.75729C19.6949 2.65112 19.8507 2.57287 20.0172 2.52704C20.1837 2.48121 20.3576 2.46869 20.5289 2.4902C20.7002 2.51172 20.8656 2.56685 21.0156 2.65242L54.1729 21.5058" stroke="#C09B6B" stroke-width="4" stroke-linecap="round" stroke-linejoin="round"/>
<path d="M14.6155 62.479C12.5235 62.479 10.5172 61.6479 9.03788 60.1687C7.55859 58.6894 6.72754 56.683 6.72754 54.591C6.72754 52.499 7.55859 50.4926 9.03788 49.0133C10.5172 47.5341 12.5235 46.703 14.6155 46.703C34.3489 46.703 47.4822 37.5003 52.7489 24.3537C53.6529 21.8417 54.5142 20.4097 56.6929 20.4097C57.7389 20.4097 58.7421 20.8252 59.4817 21.5648C60.2213 22.3045 60.6369 23.3077 60.6369 24.3537C60.6315 33.5457 39.5942 62.479 14.6155 62.479Z" stroke="#C09B6B" stroke-width="4" stroke-linecap="round" stroke-linejoin="round"/>
</g>
<defs>
<clipPath id="clip0_4_11783">
<rect width="64" height="64" fill="white" transform="translate(0.727539 0.479004)"/>
</clipPath>
</defs>
</svg>
