<svg width="56" height="57" viewBox="0 0 56 57" fill="none" xmlns="http://www.w3.org/2000/svg">
<g clip-path="url(#clip0_2008_41121)">
<path d="M17.4463 8.07812C19.3429 10.046 21.6168 11.6111 24.1322 12.6799C26.6475 13.7488 29.3526 14.2994 32.0856 14.2988C34.8532 14.2996 37.5917 13.735 40.1333 12.6398" stroke="#C09B6B" stroke-width="3.5" stroke-linecap="round" stroke-linejoin="round"/>
<path d="M40.2499 14.2988V26.5488C40.2499 29.7977 38.9593 32.9136 36.662 35.2109C34.3647 37.5082 31.2488 38.7988 27.9999 38.7988C24.751 38.7988 21.6352 37.5082 19.3379 35.2109C17.0406 32.9136 15.7499 29.7977 15.7499 26.5488V14.2988C15.7499 11.0499 17.0406 7.93409 19.3379 5.63677C21.6352 3.33945 24.751 2.04883 27.9999 2.04883C31.2488 2.04883 34.3647 3.33945 36.662 5.63677C38.9593 7.93409 40.2499 11.0499 40.2499 14.2988V14.2988Z" stroke="#C09B6B" stroke-width="3.5" stroke-linecap="round" stroke-linejoin="round"/>
<path d="M40.2523 16.0488C40.2523 19.6002 37.4173 26.9758 35.0023 28.2988C32.8159 29.4935 31.2176 24.7988 28.0023 24.7988C24.7869 24.7988 23.1886 29.4935 20.9999 28.2988C18.5849 26.9758 15.7499 19.6002 15.7499 16.0488" stroke="#C09B6B" stroke-width="3.5" stroke-linecap="round" stroke-linejoin="round"/>
<path d="M50.4816 54.5489C49.8369 50.4227 48.0703 46.5531 45.3749 43.363C42.6795 40.173 39.1591 37.7853 35.1983 36.4609" stroke="#C09B6B" stroke-width="3.5" stroke-linecap="round" stroke-linejoin="round"/>
<path d="M20.8016 36.4648C16.8408 37.7892 13.3203 40.1769 10.6249 43.3669C7.92954 46.557 6.16294 50.4266 5.51825 54.5528" stroke="#C09B6B" stroke-width="3.5" stroke-linecap="round" stroke-linejoin="round"/>
<path d="M28.2682 54.5488V38.7988" stroke="#C09B6B" stroke-width="3.5" stroke-linecap="round" stroke-linejoin="round"/>
<path d="M35.2682 51.0488H42.2682" stroke="#C09B6B" stroke-width="3.5" stroke-linecap="round" stroke-linejoin="round"/>
</g>
<defs>
<clipPath id="clip0_2008_41121">
<rect width="56" height="56" fill="white" transform="translate(0 0.298828)"/>
</clipPath>
</defs>
</svg>
