<svg width="65" height="65" viewBox="0 0 65 65" fill="none" xmlns="http://www.w3.org/2000/svg">
<g clip-path="url(#clip0_4_11731)">
<path d="M62.8643 58.9834C62.8643 60.0443 62.4428 61.0617 61.6927 61.8118C60.9425 62.562 59.9251 62.9834 58.8643 62.9834C57.8034 62.9834 56.786 62.562 56.0358 61.8118C55.2857 61.0617 54.8643 60.0443 54.8643 58.9834V2.9834C56.986 2.9834 59.0208 3.82625 60.5211 5.32654C62.0214 6.82684 62.8643 8.86167 62.8643 10.9834V58.9834Z" stroke="#C09B6B" stroke-width="4" stroke-linecap="round" stroke-linejoin="round"/>
<path d="M40.8643 2.9834H54.8643" stroke="#C09B6B" stroke-width="4" stroke-linecap="round" stroke-linejoin="round"/>
<path d="M40.8643 42.9834H54.8643" stroke="#C09B6B" stroke-width="4" stroke-linecap="round" stroke-linejoin="round"/>
<path d="M40.8643 10.9834H46.8643" stroke="#C09B6B" stroke-width="4" stroke-linecap="round" stroke-linejoin="round"/>
<path d="M40.8643 18.9834H46.8643" stroke="#C09B6B" stroke-width="4" stroke-linecap="round" stroke-linejoin="round"/>
<path d="M40.8643 26.9834H46.8643" stroke="#C09B6B" stroke-width="4" stroke-linecap="round" stroke-linejoin="round"/>
<path d="M40.8643 34.9834H46.8643" stroke="#C09B6B" stroke-width="4" stroke-linecap="round" stroke-linejoin="round"/>
<path d="M8.86426 58.9834C12.178 58.9834 14.8643 56.2971 14.8643 52.9834C14.8643 49.6697 12.178 46.9834 8.86426 46.9834C5.55055 46.9834 2.86426 49.6697 2.86426 52.9834C2.86426 56.2971 5.55055 58.9834 8.86426 58.9834Z" stroke="#C09B6B" stroke-width="4" stroke-linecap="round" stroke-linejoin="round"/>
<path d="M28.8643 58.9834C32.178 58.9834 34.8643 56.2971 34.8643 52.9834C34.8643 49.6697 32.178 46.9834 28.8643 46.9834C25.5505 46.9834 22.8643 49.6697 22.8643 52.9834C22.8643 56.2971 25.5505 58.9834 28.8643 58.9834Z" stroke="#C09B6B" stroke-width="4" stroke-linecap="round" stroke-linejoin="round"/>
<path d="M34.8645 62.9834C33.623 62.9839 32.412 62.5996 31.3981 61.8832C30.3842 61.1668 29.6173 60.1537 29.2031 58.9834" stroke="#C09B6B" stroke-width="4" stroke-linecap="round" stroke-linejoin="round"/>
<path d="M14.8643 52.9834V30.9834L18.8643 2.9834L22.8643 30.9834V52.9834" stroke="#C09B6B" stroke-width="4" stroke-linecap="round" stroke-linejoin="round"/>
<path d="M14.8643 38.9834L22.8643 34.9834" stroke="#C09B6B" stroke-width="4" stroke-linecap="round" stroke-linejoin="round"/>
</g>
<defs>
<clipPath id="clip0_4_11731">
<rect width="64" height="64" fill="white" transform="translate(0.864258 0.983398)"/>
</clipPath>
</defs>
</svg>
