<svg width="65" height="65" viewBox="0 0 65 65" fill="none" xmlns="http://www.w3.org/2000/svg">
<g clip-path="url(#clip0_4_11792)">
<path d="M62.6606 29.1787H48.7939C48.7939 33.4222 47.1082 37.4918 44.1077 40.4924C41.1071 43.493 37.0374 45.1787 32.7939 45.1787C28.5505 45.1787 24.4808 43.493 21.4802 40.4924C18.4797 37.4918 16.7939 33.4222 16.7939 29.1787H2.79395" stroke="#C09B6B" stroke-width="4" stroke-linecap="round" stroke-linejoin="round"/>
<path d="M4.79395 38.1787C5.05916 38.1787 5.31352 38.2841 5.50105 38.4716C5.68859 38.6591 5.79395 38.9135 5.79395 39.1787" stroke="#C09B6B" stroke-width="4" stroke-linecap="round" stroke-linejoin="round"/>
<path d="M3.79395 39.1787C3.79395 38.9135 3.8993 38.6591 4.08684 38.4716C4.27438 38.2841 4.52873 38.1787 4.79395 38.1787" stroke="#C09B6B" stroke-width="4" stroke-linecap="round" stroke-linejoin="round"/>
<path d="M4.79395 40.1787C4.52873 40.1787 4.27438 40.0734 4.08684 39.8858C3.8993 39.6983 3.79395 39.4439 3.79395 39.1787" stroke="#C09B6B" stroke-width="4" stroke-linecap="round" stroke-linejoin="round"/>
<path d="M5.79395 39.1787C5.79395 39.4439 5.68859 39.6983 5.50105 39.8858C5.31352 40.0734 5.05916 40.1787 4.79395 40.1787" stroke="#C09B6B" stroke-width="4" stroke-linecap="round" stroke-linejoin="round"/>
<path d="M4.79395 58.1787C5.05916 58.1787 5.31352 58.2841 5.50105 58.4716C5.68859 58.6591 5.79395 58.9135 5.79395 59.1787" stroke="#C09B6B" stroke-width="4" stroke-linecap="round" stroke-linejoin="round"/>
<path d="M3.79395 59.1787C3.79395 58.9135 3.8993 58.6591 4.08684 58.4716C4.27438 58.2841 4.52873 58.1787 4.79395 58.1787" stroke="#C09B6B" stroke-width="4" stroke-linecap="round" stroke-linejoin="round"/>
<path d="M4.79395 60.1787C4.52873 60.1787 4.27438 60.0734 4.08684 59.8858C3.8993 59.6983 3.79395 59.4439 3.79395 59.1787" stroke="#C09B6B" stroke-width="4" stroke-linecap="round" stroke-linejoin="round"/>
<path d="M5.79395 59.1787C5.79395 59.4439 5.68859 59.6983 5.50105 59.8858C5.31352 60.0734 5.05916 60.1787 4.79395 60.1787" stroke="#C09B6B" stroke-width="4" stroke-linecap="round" stroke-linejoin="round"/>
<path d="M12.7939 48.1787C13.0592 48.1787 13.3135 48.2841 13.5011 48.4716C13.6886 48.6591 13.7939 48.9135 13.7939 49.1787" stroke="#C09B6B" stroke-width="4" stroke-linecap="round" stroke-linejoin="round"/>
<path d="M11.7939 49.1787C11.7939 48.9135 11.8993 48.6591 12.0868 48.4716C12.2744 48.2841 12.5287 48.1787 12.7939 48.1787" stroke="#C09B6B" stroke-width="4" stroke-linecap="round" stroke-linejoin="round"/>
<path d="M12.7939 50.1787C12.5287 50.1787 12.2744 50.0734 12.0868 49.8858C11.8993 49.6983 11.7939 49.4439 11.7939 49.1787" stroke="#C09B6B" stroke-width="4" stroke-linecap="round" stroke-linejoin="round"/>
<path d="M13.7939 49.1787C13.7939 49.4439 13.6886 49.6983 13.5011 49.8858C13.3135 50.0734 13.0592 50.1787 12.7939 50.1787" stroke="#C09B6B" stroke-width="4" stroke-linecap="round" stroke-linejoin="round"/>
<path d="M22.7939 58.1787C23.0592 58.1787 23.3135 58.2841 23.5011 58.4716C23.6886 58.6591 23.7939 58.9135 23.7939 59.1787" stroke="#C09B6B" stroke-width="4" stroke-linecap="round" stroke-linejoin="round"/>
<path d="M21.7939 59.1787C21.7939 58.9135 21.8993 58.6591 22.0868 58.4716C22.2744 58.2841 22.5287 58.1787 22.7939 58.1787" stroke="#C09B6B" stroke-width="4" stroke-linecap="round" stroke-linejoin="round"/>
<path d="M22.7939 60.1787C22.5287 60.1787 22.2744 60.0734 22.0868 59.8858C21.8993 59.6983 21.7939 59.4439 21.7939 59.1787" stroke="#C09B6B" stroke-width="4" stroke-linecap="round" stroke-linejoin="round"/>
<path d="M23.7939 59.1787C23.7939 59.4439 23.6886 59.6983 23.5011 59.8858C23.3135 60.0734 23.0592 60.1787 22.7939 60.1787" stroke="#C09B6B" stroke-width="4" stroke-linecap="round" stroke-linejoin="round"/>
<path d="M60.7939 38.1787C60.5287 38.1787 60.2744 38.2841 60.0868 38.4716C59.8993 38.6591 59.7939 38.9135 59.7939 39.1787" stroke="#C09B6B" stroke-width="4" stroke-linecap="round" stroke-linejoin="round"/>
<path d="M61.7939 39.1787C61.7939 38.9135 61.6886 38.6591 61.5011 38.4716C61.3135 38.2841 61.0592 38.1787 60.7939 38.1787" stroke="#C09B6B" stroke-width="4" stroke-linecap="round" stroke-linejoin="round"/>
<path d="M60.7939 40.1787C61.0592 40.1787 61.3135 40.0734 61.5011 39.8858C61.6886 39.6983 61.7939 39.4439 61.7939 39.1787" stroke="#C09B6B" stroke-width="4" stroke-linecap="round" stroke-linejoin="round"/>
<path d="M59.7939 39.1787C59.7939 39.4439 59.8993 39.6983 60.0868 39.8858C60.2744 40.0734 60.5287 40.1787 60.7939 40.1787" stroke="#C09B6B" stroke-width="4" stroke-linecap="round" stroke-linejoin="round"/>
<path d="M60.7939 58.1787C60.5287 58.1787 60.2744 58.2841 60.0868 58.4716C59.8993 58.6591 59.7939 58.9135 59.7939 59.1787" stroke="#C09B6B" stroke-width="4" stroke-linecap="round" stroke-linejoin="round"/>
<path d="M61.7939 59.1787C61.7939 58.9135 61.6886 58.6591 61.5011 58.4716C61.3135 58.2841 61.0592 58.1787 60.7939 58.1787" stroke="#C09B6B" stroke-width="4" stroke-linecap="round" stroke-linejoin="round"/>
<path d="M60.7939 60.1787C61.0592 60.1787 61.3135 60.0734 61.5011 59.8858C61.6886 59.6983 61.7939 59.4439 61.7939 59.1787" stroke="#C09B6B" stroke-width="4" stroke-linecap="round" stroke-linejoin="round"/>
<path d="M59.7939 59.1787C59.7939 59.4439 59.8993 59.6983 60.0868 59.8858C60.2744 60.0734 60.5287 60.1787 60.7939 60.1787" stroke="#C09B6B" stroke-width="4" stroke-linecap="round" stroke-linejoin="round"/>
<path d="M52.7939 48.1787C52.5287 48.1787 52.2744 48.2841 52.0868 48.4716C51.8993 48.6591 51.7939 48.9135 51.7939 49.1787" stroke="#C09B6B" stroke-width="4" stroke-linecap="round" stroke-linejoin="round"/>
<path d="M53.7939 49.1787C53.7939 48.9135 53.6886 48.6591 53.5011 48.4716C53.3135 48.2841 53.0592 48.1787 52.7939 48.1787" stroke="#C09B6B" stroke-width="4" stroke-linecap="round" stroke-linejoin="round"/>
<path d="M52.7939 50.1787C53.0592 50.1787 53.3135 50.0734 53.5011 49.8858C53.6886 49.6983 53.7939 49.4439 53.7939 49.1787" stroke="#C09B6B" stroke-width="4" stroke-linecap="round" stroke-linejoin="round"/>
<path d="M51.7939 49.1787C51.7939 49.4439 51.8993 49.6983 52.0868 49.8858C52.2744 50.0734 52.5287 50.1787 52.7939 50.1787" stroke="#C09B6B" stroke-width="4" stroke-linecap="round" stroke-linejoin="round"/>
<path d="M42.7939 58.1787C42.5287 58.1787 42.2744 58.2841 42.0868 58.4716C41.8993 58.6591 41.7939 58.9135 41.7939 59.1787" stroke="#C09B6B" stroke-width="4" stroke-linecap="round" stroke-linejoin="round"/>
<path d="M43.7939 59.1787C43.7939 58.9135 43.6886 58.6591 43.5011 58.4716C43.3135 58.2841 43.0592 58.1787 42.7939 58.1787" stroke="#C09B6B" stroke-width="4" stroke-linecap="round" stroke-linejoin="round"/>
<path d="M42.7939 60.1787C43.0592 60.1787 43.3135 60.0734 43.5011 59.8858C43.6886 59.6983 43.7939 59.4439 43.7939 59.1787" stroke="#C09B6B" stroke-width="4" stroke-linecap="round" stroke-linejoin="round"/>
<path d="M41.7939 59.1787C41.7939 59.4439 41.8993 59.6983 42.0868 59.8858C42.2744 60.0734 42.5287 60.1787 42.7939 60.1787" stroke="#C09B6B" stroke-width="4" stroke-linecap="round" stroke-linejoin="round"/>
<path d="M22.7939 27.1782C22.7939 29.8304 23.8475 32.3739 25.7229 34.2493C27.5982 36.1246 30.1418 37.1782 32.7939 37.1782C35.4461 37.1782 37.9896 36.1246 39.865 34.2493C41.7404 32.3739 42.7939 29.8304 42.7939 27.1782C42.7939 20.0982 34.9619 17.7169 37.3193 6.17285C37.4024 5.76856 37.3585 5.34848 37.1937 4.97007C37.0289 4.59167 36.7512 4.27343 36.3986 4.05889C36.046 3.84435 35.6357 3.744 35.2239 3.77156C34.8121 3.79912 34.4188 3.95325 34.0979 4.21285C30.772 7.08882 28.0575 10.6036 26.1157 14.5485C24.1739 18.4935 23.0443 22.7883 22.7939 27.1782V27.1782Z" stroke="#C09B6B" stroke-width="4" stroke-linecap="round" stroke-linejoin="round"/>
</g>
<defs>
<clipPath id="clip0_4_11792">
<rect width="64" height="64" fill="white" transform="translate(0.727539 0.479004)"/>
</clipPath>
</defs>
</svg>
